<!DOCTYPE svg PUBLIC "-//W3C//DTD SVG 1.1//EN" "http://www.w3.org/Graphics/SVG/1.1/DTD/svg11.dtd">
<!-- Uploaded to: SVG Repo, www.svgrepo.com, Transformed by: SVG Repo Mixer Tools -->
<svg height="800px" width="800px" version="1.1" id="Layer_1" xmlns="http://www.w3.org/2000/svg" xmlns:xlink="http://www.w3.org/1999/xlink" viewBox="-48 -48 576.00 576.00" xml:space="preserve" fill="#000000" stroke="#000000" stroke-width="1.44">
<g id="SVGRepo_bgCarrier" stroke-width="0" transform="translate(0,0), scale(1)">
<path transform="translate(-48, -48), scale(18)" d="M16,29.194423084457714C18.2107371459796,29.102038401698756,20.6202098981176,29.548284442068287,22.48847243525069,28.36275133389815C24.343074387522464,27.185886748116147,24.551778768422828,24.560638084539242,25.959448161077297,22.874510706307714C27.542566272647363,20.978228237695635,30.815600061996484,20.28270019753403,31.26241459533678,17.853192648926168C31.701701235003885,15.464617239135293,29.409819534667932,13.446737523735901,28.065285193270235,11.424240887187418C26.93552351532957,9.724812971228738,25.427966905842123,8.425227630272847,24.01559353175297,6.9522652605406865C22.48380773756851,5.354767831945308,21.414057462606408,3.185121581057537,19.36439876126231,2.350097652275503C17.253652360139334,1.4901868040096704,14.832633051898604,1.7407012690409087,12.626284950921299,2.3122999867902614C10.432533500709933,2.880635289567808,8.592187564002437,4.2296546096876,6.792657903084672,5.607059212977758C4.891734746240356,7.062072911058655,2.5765124698065547,8.349779101730265,1.7863336423534673,10.609467383435259C0.9975586835812253,12.865140997198075,1.9510699361120172,15.325503021332146,2.588979325974657,17.628392727274885C3.163211660705431,19.701404589909032,4.231769659623232,21.516236902689847,5.321317323424081,23.370962447124487C6.482866958959721,25.34825619179767,7.207212445403514,27.81927552778368,9.220526973728585,28.91720663608323C11.235449311015685,30.016014539066756,13.706943425717524,29.290247820812592,16,29.194423084457714" fill="#7ed0ec" strokewidth="0"/>
</g>
<g id="SVGRepo_tracerCarrier" stroke-linecap="round" stroke-linejoin="round" stroke="#CCCCCC" stroke-width="14.4"> <path style="fill:#F79E4C;" d="M272,40v400c0,17.68-14.32,32-32,32H72c-17.68,0-32-14.32-32-32V40C40,22.32,54.32,8,72,8h168 C257.68,8,272,22.32,272,40z"/> <path d="M240,480H72c-22.056,0-40-17.944-40-40V40C32,17.944,49.944,0,72,0h168c22.056,0,40,17.944,40,40v400 C280,462.056,262.056,480,240,480z M72,16c-13.232,0-24,10.768-24,24v400c0,13.232,10.768,24,24,24h168c13.232,0,24-10.768,24-24V40 c0-13.232-10.768-24-24-24H72z"/> <path style="fill:#FDECDB;" d="M240,88v264c0,8.8-7.2,16-16,16H88c-8.8,0-16-7.2-16-16V88c0-8.8,7.2-16,16-16h136 C232.8,72,240,79.2,240,88z"/> <path d="M224,376H88c-13.232,0-24-10.768-24-24V88c0-13.232,10.768-24,24-24h136c13.232,0,24,10.768,24,24v264 C248,365.232,237.232,376,224,376z M88,80c-4.408,0-8,3.584-8,8v264c0,4.416,3.592,8,8,8h136c4.408,0,8-3.584,8-8V88 c0-4.416-3.592-8-8-8H88z"/> <path d="M168,48h-32c-4.416,0-8-3.576-8-8s3.584-8,8-8h32c4.416,0,8,3.576,8,8S172.416,48,168,48z"/> <circle style="fill:#FDECDB;" cx="155.76" cy="418.8" r="15.52"/> <path d="M155.76,442.32c-12.976,0-23.52-10.552-23.52-23.52s10.552-23.512,23.52-23.512s23.52,10.544,23.52,23.512 S168.728,442.32,155.76,442.32z M155.76,411.28c-4.152,0-7.52,3.376-7.52,7.512c0,4.152,3.376,7.52,7.52,7.52s7.52-3.376,7.52-7.52 C163.28,414.656,159.904,411.28,155.76,411.28z"/> <path style="fill:#F9DDDB;" d="M440,120v160c0,8.8-7.2,16-16,16H272l-44.8,33.6c-21.12,15.84-51.2,0.8-51.2-25.6V120 c0-8.8,7.2-16,16-16h232C432.8,104,440,111.2,440,120z"/> <path style="fill:#DF5349;" d="M376,149.84c16.48,15.52,16.8,41.52,0.88,57.52l-48,48c-10,9.92-26.24,9.92-36.16-0.16l-48.24-48.8 c-15.92-15.92-15.68-41.92,0.88-57.52c16-15.04,41.44-13.44,56.96,2.08l8.8,8.8l7.92-7.92C334.48,136.32,360,134.8,376,149.84z"/> <path d="M424,96H192c-13.232,0-24,10.768-24,24v184c0,15.256,8.472,28.976,22.096,35.8c5.704,2.84,11.824,4.248,17.92,4.248 c8.472,0,16.88-2.72,23.984-8.048l42.664-32H424c13.232,0,24-10.768,24-24V120C448,106.768,437.232,96,424,96z M432,280 c0,4.416-3.592,8-8,8H272c-1.728,0-3.416,0.56-4.8,1.6l-44.8,33.6c-7.44,5.576-16.84,6.432-25.144,2.28 C188.96,321.328,184,313.304,184,304V120c0-4.416,3.592-8,8-8h232c4.408,0,8,3.584,8,8V280z"/> <path d="M384,144.016c-24-17.664-50.592-16.688-69.36,2.168l-2.888,2.256l-3.456-3.144c-18.832-18.832-49.528-19.856-68.256-2.24 c-9.56,9-15.016,21.168-15.208,34.272c-0.2,13.112,4.768,25.448,14.008,34.688l48.208,49.4C293.312,267.8,301.68,272,310.648,272 c0.064,0,0.136,0,0.2,0c8.928,0,17.328-4.064,23.68-10.376l48.016-48.32c9.264-9.312,15.504-21.816,15.296-34.944 c-0.208-13.072-5.84-25.296-13.84-34.272V144.016z M371.224,201.704l-47.976,48.584c-3.32,3.288-7.72,5.712-12.4,5.712 c-0.032,0-0.072,0-0.104,0c-4.68,0-9.056-2.48-12.336-5.816l-48.272-49.144c-6.192-6.192-9.528-14.576-9.4-23.328 c0.136-8.728,3.72-16.928,10.104-22.936c5.888-5.536,13.576-8.312,21.4-8.312c8.752,0,17.672,3.408,24.424,10.16l2.696,2.688 l-14.008,17.32c-2.776,3.44-2.24,8.472,1.192,11.248c3.44,2.8,8.48,2.248,11.256-1.192l13.176-16.296l12.44,16.152 c1.576,2.048,3.944,3.12,6.336,3.12c1.704,0,3.424-0.536,4.88-1.664c3.504-2.696,4.152-7.72,1.456-11.216l-13.352-17.336 l1.976-1.968c12.728-12.792,33.28-13.6,45.808-1.816c6.352,5.984,9.928,14.08,10.072,22.8 C380.736,187.232,377.4,195.496,371.224,201.704z"/> <circle cx="216" cy="296" r="8"/> </g>
<g id="SVGRepo_iconCarrier"> <path style="fill:#F79E4C;" d="M272,40v400c0,17.68-14.32,32-32,32H72c-17.68,0-32-14.32-32-32V40C40,22.32,54.32,8,72,8h168 C257.68,8,272,22.32,272,40z"/> <path d="M240,480H72c-22.056,0-40-17.944-40-40V40C32,17.944,49.944,0,72,0h168c22.056,0,40,17.944,40,40v400 C280,462.056,262.056,480,240,480z M72,16c-13.232,0-24,10.768-24,24v400c0,13.232,10.768,24,24,24h168c13.232,0,24-10.768,24-24V40 c0-13.232-10.768-24-24-24H72z"/> <path style="fill:#FDECDB;" d="M240,88v264c0,8.8-7.2,16-16,16H88c-8.8,0-16-7.2-16-16V88c0-8.8,7.2-16,16-16h136 C232.8,72,240,79.2,240,88z"/> <path d="M224,376H88c-13.232,0-24-10.768-24-24V88c0-13.232,10.768-24,24-24h136c13.232,0,24,10.768,24,24v264 C248,365.232,237.232,376,224,376z M88,80c-4.408,0-8,3.584-8,8v264c0,4.416,3.592,8,8,8h136c4.408,0,8-3.584,8-8V88 c0-4.416-3.592-8-8-8H88z"/> <path d="M168,48h-32c-4.416,0-8-3.576-8-8s3.584-8,8-8h32c4.416,0,8,3.576,8,8S172.416,48,168,48z"/> <circle style="fill:#FDECDB;" cx="155.76" cy="418.8" r="15.52"/> <path d="M155.76,442.32c-12.976,0-23.52-10.552-23.52-23.52s10.552-23.512,23.52-23.512s23.52,10.544,23.52,23.512 S168.728,442.32,155.76,442.32z M155.76,411.28c-4.152,0-7.52,3.376-7.52,7.512c0,4.152,3.376,7.52,7.52,7.52s7.52-3.376,7.52-7.52 C163.28,414.656,159.904,411.28,155.76,411.28z"/> <path style="fill:#F9DDDB;" d="M440,120v160c0,8.8-7.2,16-16,16H272l-44.8,33.6c-21.12,15.84-51.2,0.8-51.2-25.6V120 c0-8.8,7.2-16,16-16h232C432.8,104,440,111.2,440,120z"/> <path style="fill:#DF5349;" d="M376,149.84c16.48,15.52,16.8,41.52,0.88,57.52l-48,48c-10,9.92-26.24,9.92-36.16-0.16l-48.24-48.8 c-15.92-15.92-15.68-41.92,0.88-57.52c16-15.04,41.44-13.44,56.96,2.08l8.8,8.8l7.92-7.92C334.48,136.32,360,134.8,376,149.84z"/> <path d="M424,96H192c-13.232,0-24,10.768-24,24v184c0,15.256,8.472,28.976,22.096,35.8c5.704,2.84,11.824,4.248,17.92,4.248 c8.472,0,16.88-2.72,23.984-8.048l42.664-32H424c13.232,0,24-10.768,24-24V120C448,106.768,437.232,96,424,96z M432,280 c0,4.416-3.592,8-8,8H272c-1.728,0-3.416,0.56-4.8,1.6l-44.8,33.6c-7.44,5.576-16.84,6.432-25.144,2.28 C188.96,321.328,184,313.304,184,304V120c0-4.416,3.592-8,8-8h232c4.408,0,8,3.584,8,8V280z"/> <path d="M384,144.016c-24-17.664-50.592-16.688-69.36,2.168l-2.888,2.256l-3.456-3.144c-18.832-18.832-49.528-19.856-68.256-2.24 c-9.56,9-15.016,21.168-15.208,34.272c-0.2,13.112,4.768,25.448,14.008,34.688l48.208,49.4C293.312,267.8,301.68,272,310.648,272 c0.064,0,0.136,0,0.2,0c8.928,0,17.328-4.064,23.68-10.376l48.016-48.32c9.264-9.312,15.504-21.816,15.296-34.944 c-0.208-13.072-5.84-25.296-13.84-34.272V144.016z M371.224,201.704l-47.976,48.584c-3.32,3.288-7.72,5.712-12.4,5.712 c-0.032,0-0.072,0-0.104,0c-4.68,0-9.056-2.48-12.336-5.816l-48.272-49.144c-6.192-6.192-9.528-14.576-9.4-23.328 c0.136-8.728,3.72-16.928,10.104-22.936c5.888-5.536,13.576-8.312,21.4-8.312c8.752,0,17.672,3.408,24.424,10.16l2.696,2.688 l-14.008,17.32c-2.776,3.44-2.24,8.472,1.192,11.248c3.44,2.8,8.48,2.248,11.256-1.192l13.176-16.296l12.44,16.152 c1.576,2.048,3.944,3.12,6.336,3.12c1.704,0,3.424-0.536,4.88-1.664c3.504-2.696,4.152-7.72,1.456-11.216l-13.352-17.336 l1.976-1.968c12.728-12.792,33.28-13.6,45.808-1.816c6.352,5.984,9.928,14.08,10.072,22.8 C380.736,187.232,377.4,195.496,371.224,201.704z"/> <circle cx="216" cy="296" r="8"/> </g>
</svg>